<?xml version="1.0" encoding="UTF-8" standalone="no"?>
<!-- Created with Inkscape (http://www.inkscape.org/) -->

<svg
   width="244.84792mm"
   height="46.588406mm"
   viewBox="0 0 246.52861 46.588406"
   version="1.1"
   id="svg5"
   inkscape:version="1.1.2 (b8e25be8, 2022-02-05)"
   sodipodi:docname="logo-inscape-2.svg"
   inkscape:export-filename="/Users/tree/bitmap.png"
   inkscape:export-xdpi="96"
   inkscape:export-ydpi="96"
   xmlns:inkscape="http://www.inkscape.org/namespaces/inkscape"
   xmlns:sodipodi="http://sodipodi.sourceforge.net/DTD/sodipodi-0.dtd"
   xmlns="http://www.w3.org/2000/svg"
   xmlns:svg="http://www.w3.org/2000/svg">
  <sodipodi:namedview
     id="namedview7"
     pagecolor="#ffffff"
     bordercolor="#666666"
     borderopacity="1.0"
     inkscape:pageshadow="2"
     inkscape:pageopacity="0.0"
     inkscape:pagecheckerboard="false"
     inkscape:document-units="mm"
     showgrid="false"
     fit-margin-top="3"
     fit-margin-left="3"
     fit-margin-right="3"
     fit-margin-bottom="3"
     units="mm"
     showguides="false"
     showborder="true"
     lock-margins="true"
     viewbox-width="264.03035"
     inkscape:zoom="1.4142136"
     inkscape:cx="592.20193"
     inkscape:cy="133.99673"
     inkscape:window-width="1440"
     inkscape:window-height="847"
     inkscape:window-x="24"
     inkscape:window-y="25"
     inkscape:window-maximized="0"
     inkscape:current-layer="layer1" />
  <defs
     id="defs2" />
  <g
     inkscape:label="Layer 1"
     inkscape:groupmode="layer"
     id="layer1"
     transform="translate(-33.93542,-125.74218)">
    <g
       aria-label="Paralelní"
       id="text297"
       style="font-size:40.9222px;line-height:1.25;stroke-width:0.264583" />
    <g
       aria-label="Polis"
       id="text7733"
       style="font-size:40.9222px;line-height:1.25;stroke-width:0.264583"
       transform="matrix(1.0000165,0,0,1.0000165,-0.0033395,-0.00230704)">
      <path
         d="m 202.65369,139.99975 v 27.29511 h 5.48357 v -9.65764 h 6.50663 c 5.40173,0 9.04381,-3.64207 9.04381,-9.00288 0,-2.98732 -1.14582,-5.77003 -2.98732,-7.12046 -1.30951,-0.94122 -3.47839,-1.51413 -5.81095,-1.51413 z m 10.80346,12.97234 h -5.23804 v -8.30721 h 5.31988 c 2.90548,0 4.37868,1.35044 4.37868,4.01038 0,2.78271 -1.51412,4.29683 -4.46052,4.29683 z"
         style="font-family:'Europa Grotesk SH';-inkscape-font-specification:'Europa Grotesk SH'"
         id="path99" />
      <path
         d="m 233.33958,146.26085 c -6.54755,0 -10.47608,4.09222 -10.47608,10.96715 0,6.75216 3.92853,10.92623 10.47608,10.92623 6.54756,0 10.47609,-4.17407 10.47609,-10.92623 0,-6.87493 -3.92853,-10.96715 -10.47609,-10.96715 z m 0.0409,4.54236 c 3.11008,0 4.78789,2.25073 4.78789,6.46571 0,4.21499 -1.67781,6.46571 -4.78789,6.46571 -3.23286,0 -4.82882,-2.2098 -4.82882,-6.67032 0,-3.96945 1.71873,-6.2611 4.82882,-6.2611 z"
         style="font-family:'Europa Grotesk SH';-inkscape-font-specification:'Europa Grotesk SH'"
         id="path101" />
      <path
         d="m 245.25434,139.99975 v 27.29511 h 5.27896 v -27.29511 z"
         style="font-family:'Europa Grotesk SH';-inkscape-font-specification:'Europa Grotesk SH'"
         id="path103" />
      <path
         d="m 252.4477,146.99745 v 20.29741 h 5.27896 v -20.29741 z m 0,-6.9977 v 4.54237 h 5.27896 v -4.54237 z"
         style="font-family:'Europa Grotesk SH';-inkscape-font-specification:'Europa Grotesk SH'"
         id="path105" />
      <path
         d="m 271.63125,153.25855 h 5.31989 c -0.20461,-2.08704 -0.53199,-3.06917 -1.22767,-4.0513 -1.30951,-1.8415 -4.09222,-2.86456 -7.48876,-2.86456 -2.82363,0 -5.56542,0.90029 -7.03862,2.37349 -1.1049,1.1049 -1.71873,2.70087 -1.71873,4.46052 0,3.27378 1.63689,4.62421 7.28415,5.93372 l 0.65476,0.12277 0.73659,0.16369 0.65476,0.12276 c 0.65476,0.16369 1.39135,0.3683 1.8415,0.65476 0.85937,0.45014 1.30951,1.02305 1.30951,1.67781 0,1.26859 -1.39136,2.12795 -3.35562,2.12795 -1.4732,0 -2.90548,-0.45014 -3.51931,-1.1049 -0.49107,-0.49106 -0.69568,-1.06397 -0.90029,-2.04611 h -5.40173 c 0.0409,1.92335 0.32738,2.82364 1.1049,3.92853 1.55504,2.16888 4.46052,3.27378 8.75735,3.27378 5.5245,0 8.79827,-2.5781 8.79827,-6.83401 0,-3.31469 -1.75965,-4.70605 -7.44784,-6.01556 l -0.65475,-0.16369 -0.7366,-0.12277 -0.65476,-0.16368 c -0.65475,-0.16369 -1.43227,-0.3683 -1.88242,-0.65476 -0.85936,-0.40922 -1.26859,-0.98213 -1.26859,-1.67781 0,-1.1049 1.35044,-1.96427 3.11009,-1.96427 2.33257,0 3.56023,0.94122 3.72392,2.82364 z"
         style="font-family:'Europa Grotesk SH';-inkscape-font-specification:'Europa Grotesk SH'"
         id="path107" />
    </g>
    <g
       id="g10755"
       transform="matrix(0.26458333,0,0,0.26458333,134.01671,249.8106)">
      <path
         d="m 157.17861,-416.36093 53.503,92.358 h -83.473 l -12.036,20.353 h 132.054 l -90.093,-154.458 -90.000999,154.458 h 24.272 z"
         id="path10743"
         sodipodi:nodetypes="ccccccccc" />
    </g>
    <g
       aria-label="Parallel"
       id="text7187"
       clip-path="none"
       style="font-size:40.9229px;line-height:1.25;font-family:'Europa Grotesk SH';-inkscape-font-specification:'Europa Grotesk SH';stroke-width:0.42628">
      <path
         d="m 36.956012,140.00022 v 27.29557 h 5.483669 v -9.6578 h 6.506742 c 5.401822,0 9.043961,-3.64214 9.043961,-9.00304 0,-2.98737 -1.145842,-5.77013 -2.987372,-7.12059 -1.309533,-0.94122 -3.478447,-1.51414 -5.811052,-1.51414 z m 10.803646,12.97256 h -5.238131 v -8.30735 h 5.319977 c 2.905526,0 4.378751,1.35045 4.378751,4.01044 0,2.78276 -1.514148,4.29691 -4.460597,4.29691 z"
         id="path12071" />
      <path
         d="m 70.053048,164.84042 0.368306,2.45537 h 6.056589 v -0.65476 c -0.613843,-0.45016 -0.777535,-0.73662 -0.900304,-1.22769 -0.204614,-0.69569 -0.327383,-1.4323 -0.327383,-2.12799 v -10.47627 c 0,-1.47322 -0.245537,-2.57814 -0.736612,-3.35567 -1.26861,-1.80061 -3.887676,-2.90553 -7.202431,-2.90553 -3.560292,0 -5.892897,0.73661 -7.488891,2.33261 -1.268609,1.26861 -1.718761,2.49629 -1.84153,4.66521 h 5.07444 c 0.163691,-1.88246 1.432301,-2.82368 3.764907,-2.82368 1.923376,0 3.232909,1.06399 3.11014,2.41445 -0.04092,0.532 -0.327383,0.98215 -0.900304,1.30953 -0.654766,0.32738 -1.145841,0.40923 -3.437523,0.73661 -3.110141,0.45015 -4.951672,0.90031 -5.974744,1.67784 -1.473224,0.98215 -2.332605,2.90553 -2.332605,5.07444 0,3.76491 2.455374,6.01567 6.424895,6.01567 2.741834,0 5.07444,-1.18677 6.34305,-3.11014 z m -0.204615,-6.99782 v 1.47323 c 0,1.14584 -0.163691,2.08706 -0.531997,2.70091 -0.613844,1.10492 -2.168914,1.92337 -3.683062,1.92337 -1.923376,0 -2.864603,-0.81845 -2.864603,-2.45537 0,-1.59599 0.818458,-2.20984 3.601216,-2.82368 0.818458,-0.16369 1.636916,-0.36831 3.478446,-0.81846 z"
         id="path12073" />
      <path
         d="m 77.559204,146.99803 v 20.29776 h 5.279054 v -10.51718 c 0,-1.9643 0.613844,-3.23291 1.964299,-4.09229 0.859381,-0.65477 1.677839,-0.73662 4.501519,-0.94123 v -5.40182 c -3.683061,0.20461 -5.442745,1.30953 -6.629509,3.80583 l -0.122769,-3.15107 z"
         id="path12075" />
      <path
         d="m 101.46457,164.84042 0.36831,2.45537 h 6.05659 v -0.65476 c -0.61384,-0.45016 -0.77754,-0.73662 -0.9003,-1.22769 -0.20462,-0.69569 -0.32739,-1.4323 -0.32739,-2.12799 v -10.47627 c 0,-1.47322 -0.24554,-2.57814 -0.73661,-3.35567 -1.26861,-1.80061 -3.88768,-2.90553 -7.202431,-2.90553 -3.560292,0 -5.892898,0.73661 -7.488891,2.33261 -1.26861,1.26861 -1.718762,2.49629 -1.84153,4.66521 h 5.074439 c 0.163692,-1.88246 1.432302,-2.82368 3.764907,-2.82368 1.923376,0 3.232906,1.06399 3.110136,2.41445 -0.0409,0.532 -0.32738,0.98215 -0.9003,1.30953 -0.654765,0.32738 -1.14584,0.40923 -3.437523,0.73661 -3.11014,0.45015 -4.951671,0.90031 -5.974743,1.67784 -1.473225,0.98215 -2.332606,2.90553 -2.332606,5.07444 0,3.76491 2.455374,6.01567 6.424896,6.01567 2.741834,0 5.074436,-1.18677 6.343046,-3.11014 z m -0.20461,-6.99782 v 1.47323 c 0,1.14584 -0.16369,2.08706 -0.532,2.70091 -0.61384,1.10492 -2.168913,1.92337 -3.68306,1.92337 -1.923376,0 -2.864603,-0.81845 -2.864603,-2.45537 0,-1.59599 0.818458,-2.20984 3.601215,-2.82368 0.818458,-0.16369 1.636916,-0.36831 3.478448,-0.81846 z"
         id="path12077" />
      <path
         d="m 108.97073,140.00022 v 27.29557 h 5.27905 v -27.29557 z"
         id="path12079" />
      <path
         d="m 116.1642,140.00022 v 27.29557 h 5.27906 v -27.29557 z"
         id="path12081" />
      <path
         d="m 141.93668,161.44382 h -5.44274 c -0.61385,1.55507 -1.80061,2.3326 -3.64214,2.3326 -2.53722,0 -4.05137,-1.63691 -4.50152,-4.95167 h 13.87286 v -1.30953 c 0.12277,-7.16151 -3.35568,-11.09011 -9.53503,-11.09011 -2.74184,0 -4.95167,0.85938 -6.71136,2.57814 -2.12799,2.08707 -3.06922,4.66522 -3.06922,8.59381 0,3.43753 0.98215,6.34305 2.82368,8.02089 1.75969,1.596 4.41968,2.53722 7.36613,2.53722 4.58336,0 7.52981,-2.25076 8.83934,-6.71135 z m -5.19721,-6.26121 h -8.26642 c 0.45015,-2.74183 1.84153,-4.21506 4.13321,-4.21506 2.25076,0 3.76491,1.47323 4.13321,4.21506 z"
         id="path12083" />
      <path
         d="m 143.65928,140.00022 v 27.29557 h 5.27906 v -27.29557 z"
         id="path12085" />
    </g>
  </g>
</svg>
