<?xml version="1.0" encoding="UTF-8" standalone="no"?>
<!-- Created with Inkscape (http://www.inkscape.org/) -->

<svg
   width="244.84792mm"
   height="46.588406mm"
   viewBox="0 0 246.52861 46.588406"
   version="1.1"
   id="svg5"
   inkscape:version="1.1.2 (b8e25be8, 2022-02-05)"
   sodipodi:docname="logo-inscape.svg"
   xmlns:inkscape="http://www.inkscape.org/namespaces/inkscape"
   xmlns:sodipodi="http://sodipodi.sourceforge.net/DTD/sodipodi-0.dtd"
   xmlns="http://www.w3.org/2000/svg"
   xmlns:svg="http://www.w3.org/2000/svg">
  <sodipodi:namedview
     id="namedview7"
     pagecolor="#ffffff"
     bordercolor="#666666"
     borderopacity="1.0"
     inkscape:pageshadow="2"
     inkscape:pageopacity="0.0"
     inkscape:pagecheckerboard="false"
     inkscape:document-units="mm"
     showgrid="false"
     fit-margin-top="3"
     fit-margin-left="3"
     fit-margin-right="3"
     fit-margin-bottom="3"
     units="mm"
     showguides="false"
     showborder="true"
     lock-margins="true"
     viewbox-width="264.03035"
     inkscape:zoom="1.4142136"
     inkscape:cx="26.516504"
     inkscape:cy="133.99673"
     inkscape:window-width="1440"
     inkscape:window-height="847"
     inkscape:window-x="24"
     inkscape:window-y="25"
     inkscape:window-maximized="0"
     inkscape:current-layer="layer1" />
  <defs
     id="defs2" />
  <g
     inkscape:label="Layer 1"
     inkscape:groupmode="layer"
     id="layer1"
     transform="translate(-33.93542,-125.74218)">
    <g
       aria-label="Paralelní"
       id="text297"
       style="font-size:40.9222px;line-height:1.25;stroke-width:0.264583" />
    <g
       aria-label="Polis"
       id="text7733"
       style="font-size:40.9222px;line-height:1.25;stroke-width:0.264583"
       transform="matrix(1.0000165,0,0,1.0000165,-0.0033395,-0.00230704)">
      <path
         d="m 202.65369,139.99975 v 27.29511 h 5.48357 v -9.65764 h 6.50663 c 5.40173,0 9.04381,-3.64207 9.04381,-9.00288 0,-2.98732 -1.14582,-5.77003 -2.98732,-7.12046 -1.30951,-0.94122 -3.47839,-1.51413 -5.81095,-1.51413 z m 10.80346,12.97234 h -5.23804 v -8.30721 h 5.31988 c 2.90548,0 4.37868,1.35044 4.37868,4.01038 0,2.78271 -1.51412,4.29683 -4.46052,4.29683 z"
         style="font-family:'Europa Grotesk SH';-inkscape-font-specification:'Europa Grotesk SH'"
         id="path99" />
      <path
         d="m 233.33958,146.26085 c -6.54755,0 -10.47608,4.09222 -10.47608,10.96715 0,6.75216 3.92853,10.92623 10.47608,10.92623 6.54756,0 10.47609,-4.17407 10.47609,-10.92623 0,-6.87493 -3.92853,-10.96715 -10.47609,-10.96715 z m 0.0409,4.54236 c 3.11008,0 4.78789,2.25073 4.78789,6.46571 0,4.21499 -1.67781,6.46571 -4.78789,6.46571 -3.23286,0 -4.82882,-2.2098 -4.82882,-6.67032 0,-3.96945 1.71873,-6.2611 4.82882,-6.2611 z"
         style="font-family:'Europa Grotesk SH';-inkscape-font-specification:'Europa Grotesk SH'"
         id="path101" />
      <path
         d="m 245.25434,139.99975 v 27.29511 h 5.27896 v -27.29511 z"
         style="font-family:'Europa Grotesk SH';-inkscape-font-specification:'Europa Grotesk SH'"
         id="path103" />
      <path
         d="m 252.4477,146.99745 v 20.29741 h 5.27896 v -20.29741 z m 0,-6.9977 v 4.54237 h 5.27896 v -4.54237 z"
         style="font-family:'Europa Grotesk SH';-inkscape-font-specification:'Europa Grotesk SH'"
         id="path105" />
      <path
         d="m 271.63125,153.25855 h 5.31989 c -0.20461,-2.08704 -0.53199,-3.06917 -1.22767,-4.0513 -1.30951,-1.8415 -4.09222,-2.86456 -7.48876,-2.86456 -2.82363,0 -5.56542,0.90029 -7.03862,2.37349 -1.1049,1.1049 -1.71873,2.70087 -1.71873,4.46052 0,3.27378 1.63689,4.62421 7.28415,5.93372 l 0.65476,0.12277 0.73659,0.16369 0.65476,0.12276 c 0.65476,0.16369 1.39135,0.3683 1.8415,0.65476 0.85937,0.45014 1.30951,1.02305 1.30951,1.67781 0,1.26859 -1.39136,2.12795 -3.35562,2.12795 -1.4732,0 -2.90548,-0.45014 -3.51931,-1.1049 -0.49107,-0.49106 -0.69568,-1.06397 -0.90029,-2.04611 h -5.40173 c 0.0409,1.92335 0.32738,2.82364 1.1049,3.92853 1.55504,2.16888 4.46052,3.27378 8.75735,3.27378 5.5245,0 8.79827,-2.5781 8.79827,-6.83401 0,-3.31469 -1.75965,-4.70605 -7.44784,-6.01556 l -0.65475,-0.16369 -0.7366,-0.12277 -0.65476,-0.16368 c -0.65475,-0.16369 -1.43227,-0.3683 -1.88242,-0.65476 -0.85936,-0.40922 -1.26859,-0.98213 -1.26859,-1.67781 0,-1.1049 1.35044,-1.96427 3.11009,-1.96427 2.33257,0 3.56023,0.94122 3.72392,2.82364 z"
         style="font-family:'Europa Grotesk SH';-inkscape-font-specification:'Europa Grotesk SH'"
         id="path107" />
    </g>
    <g
       id="g10755"
       transform="matrix(0.26458333,0,0,0.26458333,134.01671,249.8106)">
      <path
         d="m 157.17861,-416.36093 53.503,92.358 h -83.473 l -12.036,20.353 h 132.054 l -90.093,-154.458 -90.000999,154.458 h 24.272 z"
         id="path10743"
         sodipodi:nodetypes="ccccccccc" />
    </g>
    <text
       xml:space="preserve"
       style="font-size:40.9229px;line-height:1.25;font-family:'Europa Grotesk SH';-inkscape-font-specification:'Europa Grotesk SH';stroke-width:0.42628"
       x="36.014786"
       y="167.29579"
       id="text7187"><tspan
         sodipodi:role="line"
         id="tspan7185"
         style="font-size:40.9229px;stroke-width:0.42628"
         x="36.014786"
         y="167.29579">Parallel</tspan></text>
  </g>
</svg>
