<svg width="244.85mm" height="46.588mm" version="1.1" viewBox="0 0 246.53 46.588" xmlns="http://www.w3.org/2000/svg">
 <g transform="translate(-33.935 -125.74)">
  <g transform="matrix(1 0 0 1 -.0033395 -.002307)" stroke-width=".26458" aria-label="Polis">
   <path d="m202.65 140v27.295h5.4836v-9.6576h6.5066c5.4017 0 9.0438-3.6421 9.0438-9.0029 0-2.9873-1.1458-5.77-2.9873-7.1205-1.3095-0.94122-3.4784-1.5141-5.811-1.5141zm10.803 12.972h-5.238v-8.3072h5.3199c2.9055 0 4.3787 1.3504 4.3787 4.0104 0 2.7827-1.5141 4.2968-4.4605 4.2968z"/>
   <path d="m233.34 146.26c-6.5476 0-10.476 4.0922-10.476 10.967 0 6.7522 3.9285 10.926 10.476 10.926 6.5476 0 10.476-4.1741 10.476-10.926 0-6.8749-3.9285-10.967-10.476-10.967zm0.0409 4.5424c3.1101 0 4.7879 2.2507 4.7879 6.4657 0 4.215-1.6778 6.4657-4.7879 6.4657-3.2329 0-4.8288-2.2098-4.8288-6.6703 0-3.9694 1.7187-6.2611 4.8288-6.2611z"/>
   <path d="m245.25 140v27.295h5.279v-27.295z"/>
   <path d="m252.45 147v20.297h5.279v-20.297zm0-6.9977v4.5424h5.279v-4.5424z"/>
   <path d="m271.63 153.26h5.3199c-0.20461-2.087-0.53199-3.0692-1.2277-4.0513-1.3095-1.8415-4.0922-2.8646-7.4888-2.8646-2.8236 0-5.5654 0.90029-7.0386 2.3735-1.1049 1.1049-1.7187 2.7009-1.7187 4.4605 0 3.2738 1.6369 4.6242 7.2842 5.9337l0.65476 0.12277 0.73659 0.16369 0.65476 0.12276c0.65476 0.16369 1.3914 0.3683 1.8415 0.65476 0.85937 0.45014 1.3095 1.023 1.3095 1.6778 0 1.2686-1.3914 2.128-3.3556 2.128-1.4732 0-2.9055-0.45014-3.5193-1.1049-0.49107-0.49106-0.69568-1.064-0.90029-2.0461h-5.4017c0.0409 1.9234 0.32738 2.8236 1.1049 3.9285 1.555 2.1689 4.4605 3.2738 8.7574 3.2738 5.5245 0 8.7983-2.5781 8.7983-6.834 0-3.3147-1.7596-4.706-7.4478-6.0156l-0.65475-0.16369-0.7366-0.12277-0.65476-0.16368c-0.65475-0.16369-1.4323-0.3683-1.8824-0.65476-0.85936-0.40922-1.2686-0.98213-1.2686-1.6778 0-1.1049 1.3504-1.9643 3.1101-1.9643 2.3326 0 3.5602 0.94122 3.7239 2.8236z"/>
  </g>
  <g transform="matrix(.26458 0 0 .26458 134.02 249.81)">
   <path d="m157.18-416.36 53.503 92.358h-83.473l-12.036 20.353h132.05l-90.093-154.46-90.001 154.46h24.272z"/>
  </g>
  <text x="36.014786" y="167.29579" font-family="'Europa Grotesk SH'" font-size="40.923px" stroke-width=".42628" style="line-height:1.25" xml:space="preserve"><tspan x="36.014786" y="167.29579" font-size="40.923px" stroke-width=".42628">Parallel</tspan></text>
 </g>
</svg>
