<?xml version="1.0" encoding="UTF-8" standalone="no"?>
<!-- Created with Inkscape (http://www.inkscape.org/) -->

<svg
   width="265.84671mm"
   height="46.588406mm"
   viewBox="0 0 267.67154 46.588406"
   version="1.1"
   id="svg5"
   inkscape:version="1.1.2 (b8e25be8, 2022-02-05)"
   sodipodi:docname="logo-inscape.svg"
   xmlns:inkscape="http://www.inkscape.org/namespaces/inkscape"
   xmlns:sodipodi="http://sodipodi.sourceforge.net/DTD/sodipodi-0.dtd"
   xmlns="http://www.w3.org/2000/svg"
   xmlns:svg="http://www.w3.org/2000/svg">
  <sodipodi:namedview
     id="namedview7"
     pagecolor="#ffffff"
     bordercolor="#666666"
     borderopacity="1.0"
     inkscape:pageshadow="2"
     inkscape:pageopacity="0.0"
     inkscape:pagecheckerboard="false"
     inkscape:document-units="mm"
     showgrid="false"
     fit-margin-top="3"
     fit-margin-left="3"
     fit-margin-right="3"
     fit-margin-bottom="3"
     units="mm"
     showguides="false"
     showborder="true"
     lock-margins="true"
     viewbox-width="264.03035"
     inkscape:zoom="0.64052329"
     inkscape:cx="597.94859"
     inkscape:cy="-38.249975"
     inkscape:window-width="1833"
     inkscape:window-height="1097"
     inkscape:window-x="1773"
     inkscape:window-y="106"
     inkscape:window-maximized="0"
     inkscape:current-layer="layer1" />
  <defs
     id="defs2" />
  <g
     inkscape:label="Layer 1"
     inkscape:groupmode="layer"
     id="layer1"
     transform="translate(-12.791271,-125.75591)">
    <g
       aria-label="Paralelní"
       id="text297"
       style="font-size:40.9222px;line-height:1.25;stroke-width:0.264583">
      <path
         d="m 15.811864,139.99974 v 27.29511 h 5.483574 v -9.65764 h 6.50663 c 5.40173,0 9.043806,-3.64208 9.043806,-9.00289 0,-2.98732 -1.145821,-5.77003 -2.98732,-7.12046 -1.309511,-0.94121 -3.478387,-1.51412 -5.810953,-1.51412 z m 10.80346,12.97234 h -5.238041 v -8.30721 h 5.319886 c 2.905476,0 4.378675,1.35043 4.378675,4.01037 0,2.78271 -1.514121,4.29684 -4.46052,4.29684 z"
         style="font-family:'Europa Grotesk SH';-inkscape-font-specification:'Europa Grotesk SH'"
         id="path110" />
      <path
         d="m 48.908332,164.83951 0.3683,2.45534 h 6.056486 v -0.65476 c -0.613833,-0.45014 -0.777522,-0.7366 -0.900289,-1.22767 -0.204611,-0.69567 -0.327377,-1.43227 -0.327377,-2.12795 v -10.47608 c 0,-1.4732 -0.245533,-2.5781 -0.7366,-3.35562 -1.268588,-1.80058 -3.887609,-2.90548 -7.202307,-2.90548 -3.560231,0 -5.892797,0.7366 -7.488762,2.33257 -1.268589,1.26858 -1.718733,2.49625 -1.841499,4.66513 h 5.074352 c 0.163689,-1.88242 1.432277,-2.82364 3.764843,-2.82364 1.923343,0 3.232853,1.06398 3.110087,2.41441 -0.04092,0.53199 -0.327378,0.98214 -0.900289,1.30952 -0.654755,0.32737 -1.145821,0.40922 -3.437464,0.73659 -3.110087,0.45015 -4.951586,0.90029 -5.974641,1.67781 -1.4732,0.98214 -2.332566,2.90548 -2.332566,5.07436 0,3.76484 2.455332,6.01556 6.424786,6.01556 2.741787,0 5.074352,-1.18674 6.34294,-3.11009 z m -0.204611,-6.99769 v 1.4732 c 0,1.14582 -0.163688,2.08703 -0.531988,2.70086 -0.613833,1.1049 -2.168877,1.92335 -3.682998,1.92335 -1.923343,0 -2.864554,-0.81845 -2.864554,-2.45534 0,-1.59596 0.818444,-2.2098 3.601154,-2.82363 0.818443,-0.16369 1.636887,-0.3683 3.478386,-0.81844 z"
         style="font-family:'Europa Grotesk SH';-inkscape-font-specification:'Europa Grotesk SH'"
         id="path112" />
      <path
         d="m 56.414357,146.99743 v 20.29742 h 5.278964 v -10.51701 c 0,-1.96427 0.613833,-3.23285 1.964265,-4.09222 0.859366,-0.65475 1.67781,-0.7366 4.501442,-0.94121 v -5.40173 c -3.682998,0.20461 -5.442652,1.30951 -6.629396,3.80576 l -0.122767,-3.15101 z"
         style="font-family:'Europa Grotesk SH';-inkscape-font-specification:'Europa Grotesk SH'"
         id="path114" />
      <path
         d="m 80.319318,164.83951 0.3683,2.45534 h 6.056486 v -0.65476 c -0.613833,-0.45014 -0.777522,-0.7366 -0.900289,-1.22767 -0.204611,-0.69567 -0.327377,-1.43227 -0.327377,-2.12795 v -10.47608 c 0,-1.4732 -0.245534,-2.5781 -0.7366,-3.35562 -1.268588,-1.80058 -3.887609,-2.90548 -7.202307,-2.90548 -3.560231,0 -5.892797,0.7366 -7.488762,2.33257 -1.268589,1.26858 -1.718733,2.49625 -1.841499,4.66513 h 5.074352 c 0.163689,-1.88242 1.432277,-2.82364 3.764843,-2.82364 1.923343,0 3.232853,1.06398 3.110087,2.41441 -0.04092,0.53199 -0.327378,0.98214 -0.900289,1.30952 -0.654755,0.32737 -1.145821,0.40922 -3.437464,0.73659 -3.110087,0.45015 -4.951586,0.90029 -5.974641,1.67781 -1.4732,0.98214 -2.332566,2.90548 -2.332566,5.07436 0,3.76484 2.455332,6.01556 6.424785,6.01556 2.741788,0 5.074353,-1.18674 6.342941,-3.11009 z m -0.204611,-6.99769 v 1.4732 c 0,1.14582 -0.163688,2.08703 -0.531988,2.70086 -0.613833,1.1049 -2.168877,1.92335 -3.682998,1.92335 -1.923344,0 -2.864554,-0.81845 -2.864554,-2.45534 0,-1.59596 0.818444,-2.2098 3.601153,-2.82363 0.818444,-0.16369 1.636888,-0.3683 3.478387,-0.81844 z"
         style="font-family:'Europa Grotesk SH';-inkscape-font-specification:'Europa Grotesk SH'"
         id="path116" />
      <path
         d="m 87.825345,139.99974 v 27.29511 h 5.278964 v -27.29511 z"
         style="font-family:'Europa Grotesk SH';-inkscape-font-specification:'Europa Grotesk SH'"
         id="path118" />
      <path
         d="m 113.59738,161.44297 h -5.44266 c -0.61383,1.55504 -1.80057,2.33257 -3.64207,2.33257 -2.53718,0 -4.0513,-1.63689 -4.50145,-4.95159 h 13.87263 v -1.30951 c 0.12277,-7.16138 -3.35562,-11.08992 -9.53487,-11.08992 -2.74179,0 -4.951588,0.85937 -6.711243,2.5781 -2.127954,2.08703 -3.069165,4.66513 -3.069165,8.59366 0,3.43747 0.982133,6.34295 2.823632,8.02076 1.759655,1.59596 4.419596,2.53717 7.365996,2.53717 4.58329,0 7.52968,-2.25072 8.8392,-6.71124 z m -5.19712,-6.2611 h -8.26629 c 0.45015,-2.74178 1.8415,-4.21498 4.13314,-4.21498 2.25072,0 3.76485,1.4732 4.13315,4.21498 z"
         style="font-family:'Europa Grotesk SH';-inkscape-font-specification:'Europa Grotesk SH'"
         id="path120" />
      <path
         d="m 115.31994,139.99974 v 27.29511 h 5.27897 v -27.29511 z"
         style="font-family:'Europa Grotesk SH';-inkscape-font-specification:'Europa Grotesk SH'"
         id="path122" />
      <path
         d="m 122.5133,146.99743 v 20.29742 h 5.27897 v -11.54006 c 0,-2.82364 1.75965,-4.7879 4.33775,-4.7879 2.29164,0 3.35562,1.39135 3.35562,4.66513 v 11.66283 h 5.40173 v -13.13603 c 0,-2.41441 -0.20461,-3.35562 -0.90029,-4.62421 -1.14582,-2.00519 -3.3147,-3.11009 -6.05648,-3.11009 -2.9464,0 -4.7879,1.02306 -6.22018,3.43747 l -0.0818,-2.86456 z"
         style="font-family:'Europa Grotesk SH';-inkscape-font-specification:'Europa Grotesk SH'"
         id="path124" />
      <path
         d="m 142.6547,146.99743 v 20.29742 h 5.40173 v -20.29742 z m 3.19193,-9.20749 -3.60115,6.38386 h 3.68299 l 5.60635,-6.38386 z"
         style="font-family:'Europa Grotesk SH';-inkscape-font-specification:'Europa Grotesk SH'"
         id="path126" />
    </g>
    <g
       aria-label="Polis"
       id="text7733"
       style="font-size:40.9222px;line-height:1.25;stroke-width:0.264583">
      <path
         d="m 202.65369,139.99975 v 27.29511 h 5.48357 v -9.65764 h 6.50663 c 5.40173,0 9.04381,-3.64207 9.04381,-9.00288 0,-2.98732 -1.14582,-5.77003 -2.98732,-7.12046 -1.30951,-0.94122 -3.47839,-1.51413 -5.81095,-1.51413 z m 10.80346,12.97234 h -5.23804 v -8.30721 h 5.31988 c 2.90548,0 4.37868,1.35044 4.37868,4.01038 0,2.78271 -1.51412,4.29683 -4.46052,4.29683 z"
         style="font-family:'Europa Grotesk SH';-inkscape-font-specification:'Europa Grotesk SH'"
         id="path99" />
      <path
         d="m 233.33958,146.26085 c -6.54755,0 -10.47608,4.09222 -10.47608,10.96715 0,6.75216 3.92853,10.92623 10.47608,10.92623 6.54756,0 10.47609,-4.17407 10.47609,-10.92623 0,-6.87493 -3.92853,-10.96715 -10.47609,-10.96715 z m 0.0409,4.54236 c 3.11008,0 4.78789,2.25073 4.78789,6.46571 0,4.21499 -1.67781,6.46571 -4.78789,6.46571 -3.23286,0 -4.82882,-2.2098 -4.82882,-6.67032 0,-3.96945 1.71873,-6.2611 4.82882,-6.2611 z"
         style="font-family:'Europa Grotesk SH';-inkscape-font-specification:'Europa Grotesk SH'"
         id="path101" />
      <path
         d="m 245.25434,139.99975 v 27.29511 h 5.27896 v -27.29511 z"
         style="font-family:'Europa Grotesk SH';-inkscape-font-specification:'Europa Grotesk SH'"
         id="path103" />
      <path
         d="m 252.4477,146.99745 v 20.29741 h 5.27896 v -20.29741 z m 0,-6.9977 v 4.54237 h 5.27896 v -4.54237 z"
         style="font-family:'Europa Grotesk SH';-inkscape-font-specification:'Europa Grotesk SH'"
         id="path105" />
      <path
         d="m 271.63125,153.25855 h 5.31989 c -0.20461,-2.08704 -0.53199,-3.06917 -1.22767,-4.0513 -1.30951,-1.8415 -4.09222,-2.86456 -7.48876,-2.86456 -2.82363,0 -5.56542,0.90029 -7.03862,2.37349 -1.1049,1.1049 -1.71873,2.70087 -1.71873,4.46052 0,3.27378 1.63689,4.62421 7.28415,5.93372 l 0.65476,0.12277 0.73659,0.16369 0.65476,0.12276 c 0.65476,0.16369 1.39135,0.3683 1.8415,0.65476 0.85937,0.45014 1.30951,1.02305 1.30951,1.67781 0,1.26859 -1.39136,2.12795 -3.35562,2.12795 -1.4732,0 -2.90548,-0.45014 -3.51931,-1.1049 -0.49107,-0.49106 -0.69568,-1.06397 -0.90029,-2.04611 h -5.40173 c 0.0409,1.92335 0.32738,2.82364 1.1049,3.92853 1.55504,2.16888 4.46052,3.27378 8.75735,3.27378 5.5245,0 8.79827,-2.5781 8.79827,-6.83401 0,-3.31469 -1.75965,-4.70605 -7.44784,-6.01556 l -0.65475,-0.16369 -0.7366,-0.12277 -0.65476,-0.16368 c -0.65475,-0.16369 -1.43227,-0.3683 -1.88242,-0.65476 -0.85936,-0.40922 -1.26859,-0.98213 -1.26859,-1.67781 0,-1.1049 1.35044,-1.96427 3.11009,-1.96427 2.33257,0 3.56023,0.94122 3.72392,2.82364 z"
         style="font-family:'Europa Grotesk SH';-inkscape-font-specification:'Europa Grotesk SH'"
         id="path107" />
    </g>
    <g
       id="g10755"
       transform="matrix(0.26458333,0,0,0.26458333,134.01671,249.8106)">
      <path
         d="m 157.17861,-416.36093 53.503,92.358 h -83.473 l -12.036,20.353 h 132.054 l -90.093,-154.458 -90.000999,154.458 h 24.272 z"
         id="path10743"
         sodipodi:nodetypes="ccccccccc" />
    </g>
  </g>
</svg>
